<svg id="visual" viewBox="0 0 960 540" width="960" height="540" xmlns="http://www.w3.org/2000/svg" xmlns:xlink="http://www.w3.org/1999/xlink" version="1.1"><rect x="0" y="0" width="960" height="540" fill="#002233"></rect><path d="M0 363L22.8 380.8C45.7 398.7 91.3 434.3 137 433.3C182.7 432.3 228.3 394.7 274 390.2C319.7 385.7 365.3 414.3 411.2 423.5C457 432.7 503 422.3 548.8 424.7C594.7 427 640.3 442 686 446.2C731.7 450.3 777.3 443.7 823 430.3C868.7 417 914.3 397 937.2 387L960 377L960 541L937.2 541C914.3 541 868.7 541 823 541C777.3 541 731.7 541 686 541C640.3 541 594.7 541 548.8 541C503 541 457 541 411.2 541C365.3 541 319.7 541 274 541C228.3 541 182.7 541 137 541C91.3 541 45.7 541 22.8 541L0 541Z" fill="#0066FF" stroke-linecap="round" stroke-linejoin="miter"></path></svg>